# Created by FreeCAD <http://www.freecadweb.org>
v -55.000000 0.304641 0.000000
v -55.000000 0.301641 0.000000
v -55.000000 0.304641 0.003000
v -55.000000 0.301641 0.003000
v -45.045246 -0.934111 0.000000
v -45.045246 -0.934111 0.003000
v -35.062561 -1.922838 0.000000
v -35.062561 -1.922838 0.003000
v -25.058218 -2.660921 0.000000
v -25.058218 -2.660921 0.003000
v -15.038512 -3.147894 0.000000
v -15.038512 -3.147894 0.003000
v -5.009747 -3.383451 0.000000
v -5.009747 -3.383451 0.003000
v 5.021771 -3.367444 0.000000
v 5.021771 -3.367444 0.003000
v 15.049734 -3.099884 0.000000
v 15.049734 -3.099884 0.003000
v 25.067833 -2.580937 0.000000
v 25.067833 -2.580937 0.003000
v 35.069771 -1.810931 0.000000
v 35.069771 -1.810931 0.003000
v 45.049252 -0.790351 0.000000
v 45.049252 -0.790351 0.003000
v 55.000000 0.480163 0.000000
v 55.000000 0.480163 0.003000
v 55.000000 0.301641 0.000000
v 55.000000 0.301641 0.003000
v -45.047249 -0.952990 0.000000
v -45.047249 -0.952990 0.003000
v -35.066166 -1.957643 0.000000
v -35.066166 -1.957643 0.003000
v -25.063025 -2.711686 0.000000
v -25.063025 -2.711686 0.003000
v -15.044124 -3.214645 0.000000
v -15.044124 -3.214645 0.003000
v -5.015759 -3.466204 0.000000
v -5.015759 -3.466204 0.003000
v 5.015759 -3.466204 0.000000
v 5.015759 -3.466204 0.003000
v 15.044124 -3.214645 0.000000
v 15.044124 -3.214645 0.003000
v 25.063025 -2.711686 0.000000
v 25.063025 -2.711686 0.003000
v 35.066166 -1.957643 0.000000
v 35.066166 -1.957643 0.003000
v 45.047249 -0.952990 0.000000
v 45.047249 -0.952990 0.003000
v -55.000000 0.304641 0.000000
v -55.000000 0.301641 0.000000
v -55.000000 0.304641 0.003000
v -55.000000 0.301641 0.003000
v -45.045246 -0.934111 0.000000
v -45.045246 -0.934111 0.003000
v -35.062561 -1.922838 0.000000
v -35.062561 -1.922838 0.003000
v -25.058218 -2.660921 0.000000
v -25.058218 -2.660921 0.003000
v -15.038512 -3.147894 0.000000
v -15.038512 -3.147894 0.003000
v -5.009747 -3.383451 0.000000
v -5.009747 -3.383451 0.003000
v 5.021771 -3.367444 0.000000
v 5.021771 -3.367444 0.003000
v 15.049734 -3.099884 0.000000
v 15.049734 -3.099884 0.003000
v 25.067833 -2.580937 0.000000
v 25.067833 -2.580937 0.003000
v 35.069771 -1.810931 0.000000
v 35.069771 -1.810931 0.003000
v 45.049252 -0.790351 0.000000
v 45.049252 -0.790351 0.003000
v 55.000000 0.480163 0.000000
v 55.000000 0.480163 0.003000
v 55.000000 0.301641 0.000000
v 55.000000 0.301641 0.003000
v -45.047249 -0.952990 0.000000
v -45.047249 -0.952990 0.003000
v -35.066166 -1.957643 0.000000
v -35.066166 -1.957643 0.003000
v -25.063025 -2.711686 0.000000
v -25.063025 -2.711686 0.003000
v -15.044124 -3.214645 0.000000
v -15.044124 -3.214645 0.003000
v -5.015759 -3.466204 0.000000
v -5.015759 -3.466204 0.003000
v 5.015759 -3.466204 0.000000
v 5.015759 -3.466204 0.003000
v 15.044124 -3.214645 0.000000
v 15.044124 -3.214645 0.003000
v 25.063025 -2.711686 0.000000
v 25.063025 -2.711686 0.003000
v 35.066166 -1.957643 0.000000
v 35.066166 -1.957643 0.003000
v 45.047249 -0.952990 0.000000
v 45.047249 -0.952990 0.003000
vn -1.000000 0.000000 0.000000
vn -1.000000 -0.000000 0.000000
vn 0.123486 0.992346 0.000000
vn 0.123486 0.992346 -0.000000
vn 0.098562 0.995131 -0.000000
vn 0.098562 0.995131 0.000000
vn 0.073576 0.997290 -0.000000
vn 0.073576 0.997290 0.000000
vn 0.048544 0.998821 -0.000000
vn 0.048544 0.998821 0.000000
vn 0.023482 0.999724 -0.000000
vn 0.023482 0.999724 0.000000
vn -0.001596 0.999999 0.000000
vn -0.001596 0.999999 0.000000
vn -0.026672 0.999644 0.000000
vn -0.026672 0.999644 0.000000
vn -0.051732 0.998661 0.000000
vn -0.051732 0.998661 0.000000
vn -0.076759 0.997050 0.000000
vn -0.076759 0.997050 0.000000
vn -0.101737 0.994811 0.000000
vn -0.101737 0.994811 0.000000
vn -0.126652 0.991947 0.000000
vn -0.126652 0.991947 0.000000
vn 1.000000 0.000000 0.000000
vn 1.000000 0.000000 0.000000
vn -0.125069 -0.992148 0.000000
vn -0.125069 -0.992148 0.000000
vn -0.100150 -0.994972 0.000000
vn -0.100150 -0.994972 0.000000
vn -0.075167 -0.997171 0.000000
vn -0.075167 -0.997171 0.000000
vn -0.050138 -0.998742 0.000000
vn -0.050138 -0.998742 0.000000
vn -0.025077 -0.999686 0.000000
vn -0.025077 -0.999686 0.000000
vn 0.000000 -1.000000 0.000000
vn 0.000000 -1.000000 0.000000
vn 0.025077 -0.999686 0.000000
vn 0.025077 -0.999686 0.000000
vn 0.050138 -0.998742 0.000000
vn 0.050138 -0.998742 0.000000
vn 0.075167 -0.997171 0.000000
vn 0.075167 -0.997171 0.000000
vn 0.100150 -0.994972 0.000000
vn 0.100150 -0.994972 0.000000
vn 0.125069 -0.992148 0.000000
vn 0.125069 -0.992148 0.000000
vn 0.000000 0.000000 -1.000000
vn 0.000000 0.000000 -1.000000
vn 0.000000 -0.000000 -1.000000
vn 0.000000 0.000000 -1.000000
vn 0.000000 -0.000000 -1.000000
vn 0.000000 0.000000 -1.000000
vn 0.000000 -0.000000 -1.000000
vn 0.000000 0.000000 -1.000000
vn 0.000000 -0.000000 -1.000000
vn 0.000000 0.000000 -1.000000
vn 0.000000 -0.000000 -1.000000
vn 0.000000 0.000000 -1.000000
vn 0.000000 -0.000000 -1.000000
vn 0.000000 0.000000 -1.000000
vn 0.000000 -0.000000 -1.000000
vn 0.000000 0.000000 -1.000000
vn 0.000000 -0.000000 -1.000000
vn 0.000000 0.000000 -1.000000
vn 0.000000 -0.000000 -1.000000
vn 0.000000 0.000000 -1.000000
vn 0.000000 -0.000000 -1.000000
vn 0.000000 0.000000 -1.000000
vn 0.000000 0.000000 1.000000
vn 0.000000 0.000000 1.000000
vn 0.000000 0.000000 1.000000
vn 0.000000 0.000000 1.000000
vn 0.000000 0.000000 1.000000
vn 0.000000 0.000000 1.000000
vn 0.000000 0.000000 1.000000
vn 0.000000 0.000000 1.000000
vn 0.000000 0.000000 1.000000
vn 0.000000 0.000000 1.000000
vn 0.000000 0.000000 1.000000
vn 0.000000 0.000000 1.000000
vn 0.000000 0.000000 1.000000
vn 0.000000 0.000000 1.000000
vn 0.000000 0.000000 1.000000
vn 0.000000 0.000000 1.000000
vn 0.000000 0.000000 1.000000
vn 0.000000 0.000000 1.000000
vn 0.000000 0.000000 1.000000
vn 0.000000 0.000000 1.000000
vn 0.000000 0.000000 1.000000
vn 0.000000 0.000000 1.000000
vn -1.000000 0.000000 0.000000
vn -1.000000 -0.000000 0.000000
vn 0.123486 0.992346 0.000000
vn 0.123486 0.992346 -0.000000
vn 0.098562 0.995131 -0.000000
vn 0.098562 0.995131 0.000000
vn 0.073576 0.997290 -0.000000
vn 0.073576 0.997290 0.000000
vn 0.048544 0.998821 -0.000000
vn 0.048544 0.998821 0.000000
vn 0.023482 0.999724 -0.000000
vn 0.023482 0.999724 0.000000
vn -0.001596 0.999999 0.000000
vn -0.001596 0.999999 0.000000
vn -0.026672 0.999644 0.000000
vn -0.026672 0.999644 0.000000
vn -0.051732 0.998661 0.000000
vn -0.051732 0.998661 0.000000
vn -0.076759 0.997050 0.000000
vn -0.076759 0.997050 0.000000
vn -0.101737 0.994811 0.000000
vn -0.101737 0.994811 0.000000
vn -0.126652 0.991947 0.000000
vn -0.126652 0.991947 0.000000
vn 1.000000 0.000000 0.000000
vn 1.000000 0.000000 0.000000
vn -0.125069 -0.992148 0.000000
vn -0.125069 -0.992148 0.000000
vn -0.100150 -0.994972 0.000000
vn -0.100150 -0.994972 0.000000
vn -0.075167 -0.997171 0.000000
vn -0.075167 -0.997171 0.000000
vn -0.050138 -0.998742 0.000000
vn -0.050138 -0.998742 0.000000
vn -0.025077 -0.999686 0.000000
vn -0.025077 -0.999686 0.000000
vn 0.000000 -1.000000 0.000000
vn 0.000000 -1.000000 0.000000
vn 0.025077 -0.999686 0.000000
vn 0.025077 -0.999686 0.000000
vn 0.050138 -0.998742 0.000000
vn 0.050138 -0.998742 0.000000
vn 0.075167 -0.997171 0.000000
vn 0.075167 -0.997171 0.000000
vn 0.100150 -0.994972 0.000000
vn 0.100150 -0.994972 0.000000
vn 0.125069 -0.992148 0.000000
vn 0.125069 -0.992148 0.000000
vn 0.000000 0.000000 -1.000000
vn 0.000000 0.000000 -1.000000
vn 0.000000 -0.000000 -1.000000
vn 0.000000 0.000000 -1.000000
vn 0.000000 -0.000000 -1.000000
vn 0.000000 0.000000 -1.000000
vn 0.000000 -0.000000 -1.000000
vn 0.000000 0.000000 -1.000000
vn 0.000000 -0.000000 -1.000000
vn 0.000000 0.000000 -1.000000
vn 0.000000 -0.000000 -1.000000
vn 0.000000 0.000000 -1.000000
vn 0.000000 -0.000000 -1.000000
vn 0.000000 0.000000 -1.000000
vn 0.000000 -0.000000 -1.000000
vn 0.000000 0.000000 -1.000000
vn 0.000000 -0.000000 -1.000000
vn 0.000000 0.000000 -1.000000
vn 0.000000 -0.000000 -1.000000
vn 0.000000 0.000000 -1.000000
vn 0.000000 -0.000000 -1.000000
vn 0.000000 0.000000 -1.000000
vn 0.000000 0.000000 1.000000
vn 0.000000 0.000000 1.000000
vn 0.000000 0.000000 1.000000
vn 0.000000 0.000000 1.000000
vn 0.000000 0.000000 1.000000
vn 0.000000 0.000000 1.000000
vn 0.000000 0.000000 1.000000
vn 0.000000 0.000000 1.000000
vn 0.000000 0.000000 1.000000
vn 0.000000 0.000000 1.000000
vn 0.000000 0.000000 1.000000
vn 0.000000 0.000000 1.000000
vn 0.000000 0.000000 1.000000
vn 0.000000 0.000000 1.000000
vn 0.000000 0.000000 1.000000
vn 0.000000 0.000000 1.000000
vn 0.000000 0.000000 1.000000
vn 0.000000 0.000000 1.000000
vn 0.000000 0.000000 1.000000
vn 0.000000 0.000000 1.000000
vn 0.000000 0.000000 1.000000
vn 0.000000 0.000000 1.000000
g Pad
f 1//1 2//1 3//1
f 3//2 2//2 4//2
f 5//3 1//3 3//3
f 5//4 3//4 6//4
f 7//5 6//5 8//5
f 7//6 5//6 6//6
f 9//7 8//7 10//7
f 9//8 7//8 8//8
f 11//9 10//9 12//9
f 11//10 9//10 10//10
f 13//11 12//11 14//11
f 13//12 11//12 12//12
f 15//13 14//13 16//13
f 15//14 13//14 14//14
f 17//15 16//15 18//15
f 17//16 15//16 16//16
f 19//17 18//17 20//17
f 19//18 17//18 18//18
f 21//19 20//19 22//19
f 21//20 19//20 20//20
f 23//21 22//21 24//21
f 23//22 21//22 22//22
f 25//23 24//23 26//23
f 25//24 23//24 24//24
f 27//25 25//25 26//25
f 27//26 26//26 28//26
f 2//27 29//27 4//27
f 4//28 29//28 30//28
f 30//29 31//29 32//29
f 29//30 31//30 30//30
f 32//31 33//31 34//31
f 31//32 33//32 32//32
f 34//33 35//33 36//33
f 33//34 35//34 34//34
f 36//35 37//35 38//35
f 35//36 37//36 36//36
f 38//37 39//37 40//37
f 37//38 39//38 38//38
f 40//39 41//39 42//39
f 39//40 41//40 40//40
f 42//41 43//41 44//41
f 41//42 43//42 42//42
f 44//43 45//43 46//43
f 43//44 45//44 44//44
f 46//45 47//45 48//45
f 45//46 47//46 46//46
f 48//47 27//47 28//47
f 47//48 27//48 48//48
f 2//49 5//49 29//49
f 1//50 5//50 2//50
f 5//51 31//51 29//51
f 5//52 7//52 31//52
f 7//53 33//53 31//53
f 7//54 9//54 33//54
f 9//55 35//55 33//55
f 9//56 11//56 35//56
f 11//57 37//57 35//57
f 11//58 13//58 37//58
f 13//59 39//59 37//59
f 13//60 15//60 39//60
f 15//61 41//61 39//61
f 15//62 17//62 41//62
f 17//63 43//63 41//63
f 17//64 19//64 43//64
f 19//65 45//65 43//65
f 19//66 21//66 45//66
f 21//67 47//67 45//67
f 21//68 23//68 47//68
f 23//69 27//69 47//69
f 23//70 25//70 27//70
f 6//71 4//71 30//71
f 6//72 3//72 4//72
f 32//73 6//73 30//73
f 8//74 6//74 32//74
f 34//75 8//75 32//75
f 10//76 8//76 34//76
f 36//77 10//77 34//77
f 12//78 10//78 36//78
f 38//79 12//79 36//79
f 14//80 12//80 38//80
f 40//81 14//81 38//81
f 16//82 14//82 40//82
f 42//83 16//83 40//83
f 18//84 16//84 42//84
f 44//85 18//85 42//85
f 20//86 18//86 44//86
f 46//87 20//87 44//87
f 22//88 20//88 46//88
f 48//89 22//89 46//89
f 24//90 22//90 48//90
f 28//91 24//91 48//91
f 26//92 24//92 28//92
g Body
f 49//93 50//93 51//93
f 51//94 50//94 52//94
f 53//95 49//95 51//95
f 53//96 51//96 54//96
f 55//97 54//97 56//97
f 55//98 53//98 54//98
f 57//99 56//99 58//99
f 57//100 55//100 56//100
f 59//101 58//101 60//101
f 59//102 57//102 58//102
f 61//103 60//103 62//103
f 61//104 59//104 60//104
f 63//105 62//105 64//105
f 63//106 61//106 62//106
f 65//107 64//107 66//107
f 65//108 63//108 64//108
f 67//109 66//109 68//109
f 67//110 65//110 66//110
f 69//111 68//111 70//111
f 69//112 67//112 68//112
f 71//113 70//113 72//113
f 71//114 69//114 70//114
f 73//115 72//115 74//115
f 73//116 71//116 72//116
f 75//117 73//117 74//117
f 75//118 74//118 76//118
f 50//119 77//119 52//119
f 52//120 77//120 78//120
f 78//121 79//121 80//121
f 77//122 79//122 78//122
f 80//123 81//123 82//123
f 79//124 81//124 80//124
f 82//125 83//125 84//125
f 81//126 83//126 82//126
f 84//127 85//127 86//127
f 83//128 85//128 84//128
f 86//129 87//129 88//129
f 85//130 87//130 86//130
f 88//131 89//131 90//131
f 87//132 89//132 88//132
f 90//133 91//133 92//133
f 89//134 91//134 90//134
f 92//135 93//135 94//135
f 91//136 93//136 92//136
f 94//137 95//137 96//137
f 93//138 95//138 94//138
f 96//139 75//139 76//139
f 95//140 75//140 96//140
f 50//141 53//141 77//141
f 49//142 53//142 50//142
f 53//143 79//143 77//143
f 53//144 55//144 79//144
f 55//145 81//145 79//145
f 55//146 57//146 81//146
f 57//147 83//147 81//147
f 57//148 59//148 83//148
f 59//149 85//149 83//149
f 59//150 61//150 85//150
f 61//151 87//151 85//151
f 61//152 63//152 87//152
f 63//153 89//153 87//153
f 63//154 65//154 89//154
f 65//155 91//155 89//155
f 65//156 67//156 91//156
f 67//157 93//157 91//157
f 67//158 69//158 93//158
f 69//159 95//159 93//159
f 69//160 71//160 95//160
f 71//161 75//161 95//161
f 71//162 73//162 75//162
f 54//163 52//163 78//163
f 54//164 51//164 52//164
f 80//165 54//165 78//165
f 56//166 54//166 80//166
f 82//167 56//167 80//167
f 58//168 56//168 82//168
f 84//169 58//169 82//169
f 60//170 58//170 84//170
f 86//171 60//171 84//171
f 62//172 60//172 86//172
f 88//173 62//173 86//173
f 64//174 62//174 88//174
f 90//175 64//175 88//175
f 66//176 64//176 90//176
f 92//177 66//177 90//177
f 68//178 66//178 92//178
f 94//179 68//179 92//179
f 70//180 68//180 94//180
f 96//181 70//181 94//181
f 72//182 70//182 96//182
f 76//183 72//183 96//183
f 74//184 72//184 76//184
